HIERARCHY
ROOT Hips
{
	OFFSET	0.00	0.00	0.00
	CHANNELS 6 Xposition Yposition Zposition Zrotation Xrotation Yrotation
	JOINT LeftUpLeg
	{
		OFFSET	 0.126116	-0.014019	-0.065224
		CHANNELS 3 Zrotation Xrotation Yrotation
		JOINT LeftLeg
		{
			OFFSET	 0.000000	 0.000000	 0.569914
			CHANNELS 3 Zrotation Xrotation Yrotation
			JOINT LeftFoot
			{
				OFFSET	 0.000000	 0.000000	 0.544423
				CHANNELS 3 Zrotation Xrotation Yrotation
				JOINT LeftToeBase
				{
					OFFSET	 0.000000	 0.000000	 0.207117
					CHANNELS 3 Zrotation Xrotation Yrotation
					End Site
					{
						OFFSET	 0.000000	 0.000000	 0.207117
					}
				}
			}
		}
	}
	JOINT RightUpLeg
	{
		OFFSET	-0.124023	-0.008373	-0.065224
		CHANNELS 3 Zrotation Xrotation Yrotation
		JOINT RightLeg
		{
			OFFSET	 0.000000	 0.000000	 0.570047
			CHANNELS 3 Zrotation Xrotation Yrotation
			JOINT RightFoot
			{
				OFFSET	 0.000000	 0.000000	 0.544354
				CHANNELS 3 Zrotation Xrotation Yrotation
				JOINT RightToeBase
				{
					OFFSET	 0.000000	 0.000000	 0.207540
					CHANNELS 3 Zrotation Xrotation Yrotation
					End Site
					{
						OFFSET	 0.000000	 0.000000	 0.207540
					}
				}
			}
		}
	}
	JOINT Spine
	{
		OFFSET	 0.000184	-0.007763	 0.117403
		CHANNELS 3 Zrotation Xrotation Yrotation
		JOINT Spine1
		{
			OFFSET	 0.000000	 0.000000	 0.137269
			CHANNELS 3 Zrotation Xrotation Yrotation
			JOINT Spine2
			{
				OFFSET	 0.000000	 0.000000	 0.156879
				CHANNELS 3 Zrotation Xrotation Yrotation
				JOINT LeftShoulder
				{
					OFFSET	 0.080501	-0.002496	 0.160144
					CHANNELS 3 Zrotation Xrotation Yrotation
					JOINT LeftArm
					{
						OFFSET	 0.000000	 0.000000	 0.164363
						CHANNELS 3 Zrotation Xrotation Yrotation
						JOINT LeftForeArm
						{
							OFFSET	 0.000000	 0.000000	 0.364576
							CHANNELS 3 Zrotation Xrotation Yrotation
							JOINT LeftHand
							{
								OFFSET	 0.000000	 0.000000	 0.360812
								CHANNELS 3 Zrotation Xrotation Yrotation
								JOINT LeftHandIndex1
								{
									OFFSET	 0.000000	 0.000000	 0.086006
									CHANNELS 3 Zrotation Xrotation Yrotation
									JOINT LeftHandIndex2
									{
										OFFSET	 0.000000	 0.000000	 0.047237
										CHANNELS 3 Zrotation Xrotation Yrotation
										JOINT LeftHandIndex3
										{
											OFFSET	-0.004284	-0.000551	 0.038165
											CHANNELS 3 Zrotation Xrotation Yrotation
											End Site
											{
												OFFSET	-0.004284	-0.000551	 0.038165
											}
										}
									}
								}
							}
						}
					}
				}
				JOINT Neck
				{
					OFFSET	 0.000000	 0.000000	 0.176489
					CHANNELS 3 Zrotation Xrotation Yrotation
					JOINT Head
					{
						OFFSET	 0.000000	-0.001747	 0.077940
						CHANNELS 3 Zrotation Xrotation Yrotation
						End Site
						{
							OFFSET	 0.000000	-0.001747	 0.077940
						}
					}
				}
				JOINT RightShoulder
				{
					OFFSET	-0.080363	 0.000306	 0.159706
					CHANNELS 3 Zrotation Xrotation Yrotation
					JOINT RightArm
					{
						OFFSET	 0.000000	 0.000000	 0.164196
						CHANNELS 3 Zrotation Xrotation Yrotation
						JOINT RightForeArm
						{
							OFFSET	 0.000000	 0.000000	 0.365611
							CHANNELS 3 Zrotation Xrotation Yrotation
							JOINT RightHand
							{
								OFFSET	 0.000000	 0.000000	 0.360648
								CHANNELS 3 Zrotation Xrotation Yrotation
								JOINT RightHandIndex1
								{
									OFFSET	 0.000000	 0.000000	 0.069977
									CHANNELS 3 Zrotation Xrotation Yrotation
									JOINT RightHandIndex2
									{
										OFFSET	 0.000000	 0.000000	 0.052305
										CHANNELS 3 Zrotation Xrotation Yrotation
										JOINT RightHandIndex3
										{
											OFFSET	 0.009002	-0.000782	 0.042196
											CHANNELS 3 Zrotation Xrotation Yrotation
											End Site
											{
												OFFSET	 0.009002	-0.000782	 0.042196
											}
										}
									}
								}
							}
						}
					}
				}
			}
		}
	}
}
MOTION
Frames:    12
Frame Time: 0.03333334
-0.410656	 0.204330	 1.243909	-174.597100	 8.296586	 13.730100	 4.124939	-3.386994	-178.088500	-7.665465	-35.063130	-4.748028	 101.690300	 59.466900	-119.042800	-2.385833	 28.452760	 0.000004	 15.959160	-47.770100	 163.819400	 5.552129	-47.093170	 2.953691	-3.943025	 68.150560	 21.888930	 2.384659	 28.388700	-0.000001	 38.849260	-18.136210	 3.735662	 42.584740	 18.202700	 18.774960	-5.955199	-0.685496	-16.490590	-91.776240	 78.527350	-180.000000	-6.480342	 40.211310	 7.692364	-3.006603	-2.941219	-109.142500	 4.411214	-30.178540	-0.705171	-4.130319	 21.525730	 0.991547	-5.167930	 0.731704	 3.519349	-1.378229	 35.397820	-2.634230	-18.001500	 7.532193	 7.600540	-22.971530	-22.254100	-15.498770	 89.782100	 78.297000	 179.993900	 66.859570	-3.956060	-9.118749	-14.598260	-9.173250	 46.691910	-39.153930	 7.524747	-76.971760	 5.716227	 19.173190	-3.685159	 5.027444	 0.246877	-9.377972	-2.350882	 35.473990	 5.254307
-0.414356	 0.212770	 1.245990	-173.898200	 8.080032	 12.360660	 4.684422	-1.052524	-176.877300	-7.710952	-32.017680	-4.407893	 100.083200	 58.966880	-116.925100	-2.385833	 28.452760	 0.000004	 17.424960	-46.653130	 165.675100	 5.718040	-47.657290	 3.103453	-4.106841	 69.463170	 21.595690	 2.384659	 28.388700	-0.000001	 36.954370	-16.415020	 4.393094	 40.824470	 16.719590	 19.827790	-5.368665	-0.199854	-15.938520	-91.776210	 78.527380	-180.000000	-8.437750	 38.306740	 12.314160	-3.087543	-2.995636	-110.195900	 4.892472	-31.735570	-0.506753	-4.130319	 21.525730	 0.991547	-5.167930	 0.731704	 3.519349	-1.378229	 35.397820	-2.634230	-17.542050	 7.725577	 8.199300	-22.673250	-22.282860	-16.562560	 89.782190	 78.295340	 179.993900	 64.116450	-10.738670	-10.834220	-13.447070	-8.306201	 48.063660	-42.787790	 8.656386	-71.743370	 5.716227	 19.173190	-3.685159	 5.027444	 0.246877	-9.377972	-2.350882	 35.473990	 5.254307
-0.417198	 0.219484	 1.247734	-173.045100	 7.628193	 11.262740	 5.231443	 1.295244	-176.097000	-7.881092	-28.973710	-4.112398	 99.816890	 58.307220	-115.888400	-2.385833	 28.452760	 0.000004	 18.899700	-45.635690	 167.312100	 5.728512	-48.056430	 3.130842	-3.732064	 70.564450	 20.687140	 2.384659	 28.388700	-0.000001	 34.953260	-14.973900	 4.909567	 39.376610	 15.007670	 20.872790	-4.728942	 0.465728	-15.584070	-91.776250	 78.527380	-180.000000	-10.579730	 37.398960	 16.307670	-3.090449	-2.850569	-111.185600	 5.257748	-33.714910	-0.372500	-4.130319	 21.525730	 0.991547	-5.167930	 0.731704	 3.519349	-1.378229	 35.397820	-2.634230	-17.038910	 7.676972	 8.290864	-22.156550	-22.443780	-16.149270	 89.782190	 78.291130	 179.994100	 60.667280	-14.698100	-11.788250	-13.137370	-7.839730	 47.659790	-45.709800	 7.338561	-68.306920	 5.716227	 19.173190	-3.685159	 5.027444	 0.246877	-9.377972	-2.350882	 35.473990	 5.254307
-0.419115	 0.224137	 1.249091	-172.124200	 7.077274	 10.824940	 5.958002	 3.057078	-176.152500	-8.100588	-27.024210	-3.959665	 100.593600	 57.750790	-116.015500	-2.385833	 28.452760	 0.000004	 19.958870	-44.733940	 168.107100	 5.575116	-48.041290	 3.015764	-2.373598	 71.147660	 18.740190	 2.384659	 28.388700	-0.000001	 32.922040	-13.929610	 4.673016	 38.365250	 13.371940	 21.938620	-4.082062	 1.301360	-15.416850	-91.776120	 78.527380	 179.999900	-12.712580	 37.238210	 19.375540	-3.015042	-2.552078	-111.965700	 5.561231	-35.747510	-0.328557	-4.130319	 21.525730	 0.991547	-5.167930	 0.731704	 3.519349	-1.378229	 35.397820	-2.634230	-16.499780	 7.675082	 8.228407	-21.707010	-22.667090	-15.595930	 89.782100	 78.290150	 179.994200	 57.955240	-16.701410	-12.828800	-13.091590	-7.879985	 47.991390	-48.165940	 5.905317	-66.685230	 5.716227	 19.173190	-3.685159	 5.027444	 0.246877	-9.377972	-2.350882	 35.473990	 5.254307
-0.420056	 0.226985	 1.250197	-171.328500	 6.614895	 10.573490	 6.475982	 4.158419	-176.351900	-8.426372	-25.953100	-3.959661	 100.876800	 57.312700	-115.877600	-2.385833	 28.452760	 0.000004	 21.031020	-44.001450	 168.681400	 5.236896	-47.783820	 2.752566	-0.112583	 71.373900	 15.987390	 2.384659	 28.388700	-0.000001	 31.217790	-13.009940	 4.240353	 37.662330	 12.031490	 22.862840	-3.494544	 2.131857	-15.270130	-91.776130	 78.527400	 180.000000	-14.593040	 37.344570	 21.335390	-2.886988	-2.187153	-112.390800	 5.786686	-37.601240	-0.373884	-4.130319	 21.525730	 0.991547	-5.167930	 0.731704	 3.519349	-1.378229	 35.397820	-2.634230	-16.086220	 7.829956	 8.606297	-21.403270	-22.591480	-16.234050	 89.782130	 78.290700	 179.993600	 55.254010	-17.746530	-13.497670	-13.128920	-7.839256	 47.692700	-50.016680	 4.542197	-66.282540	 5.716227	 19.173190	-3.685159	 5.027444	 0.246877	-9.377972	-2.350882	 35.473990	 5.254307
-0.420287	 0.228582	 1.250863	-170.574100	 6.016286	 10.331950	 6.645704	 4.967905	-176.493200	-8.899967	-25.507260	-4.104732	 101.587200	 56.965130	-116.176500	-2.385833	 28.452760	 0.000004	 21.535060	-43.062120	 168.918500	 5.161830	-47.307200	 2.676455	 0.821160	 71.320460	 14.714990	 2.384659	 28.388700	-0.000001	 29.614750	-11.587170	 3.739258	 37.023270	 10.448820	 23.802210	-2.876774	 2.811104	-14.950690	-91.776210	 78.527360	-180.000000	-16.146030	 37.428090	 22.634090	-2.692839	-1.695985	-112.622400	 5.795300	-39.277400	-0.588785	-4.130319	 21.525730	 0.991547	-5.167930	 0.731704	 3.519349	-1.378229	 35.397820	-2.634230	-15.457150	 8.683131	 8.294867	-21.083870	-23.554510	-15.835080	 89.782050	 78.291320	 179.993700	 51.895300	-18.185400	-14.285410	-13.022760	-7.679825	 47.545670	-51.253560	 2.840248	-66.611370	 5.716227	 19.173190	-3.685159	 5.027444	 0.246877	-9.377972	-2.350882	 35.473990	 5.254307
-0.420126	 0.229128	 1.251382	-169.983800	 5.402435	 9.846166	 7.045548	 5.875117	-176.410800	-9.344871	-24.895770	-4.204718	 102.614500	 56.721960	-116.641100	-2.385833	 28.452760	 0.000004	 23.189470	-42.344160	 169.771500	 4.539509	-47.102330	 2.211003	 3.053663	 71.376320	 12.437770	 2.384659	 28.388700	-0.000001	 28.453460	-9.896310	 3.541730	 36.552410	 8.971059	 24.616010	-2.311331	 3.473536	-14.520060	-91.776210	 78.527350	-180.000000	-17.381170	 37.424260	 23.232460	-2.587957	-1.435269	-112.748900	 6.057477	-40.528930	-0.638048	-4.130319	 21.525730	 0.991547	-5.167930	 0.731704	 3.519349	-1.378229	 35.397820	-2.634230	-14.651060	 8.979346	 7.552194	-20.559040	-23.783040	-14.947670	 89.782140	 78.293040	 179.992900	 49.297000	-18.087910	-15.083580	-12.887890	-7.590789	 47.777220	-51.539940	 1.820359	-66.951450	 5.716227	 19.173190	-3.685159	 5.027444	 0.246877	-9.377972	-2.350882	 35.473990	 5.254307
-0.420012	 0.229266	 1.251766	-169.530900	 4.993457	 9.845471	 8.045033	 6.201480	-176.939900	-9.851325	-25.067870	-4.452040	 104.647200	 56.581000	-118.136000	-2.385833	 28.452760	 0.000004	 24.538060	-41.892320	 170.095500	 3.986952	-46.646710	 1.792389	 5.149128	 70.954450	 10.166010	 2.384659	 28.388700	-0.000001	 27.494450	-8.863431	 3.046520	 36.348980	 7.768994	 25.205630	-1.788505	 4.104172	-14.230500	-91.776150	 78.527420	 180.000000	-18.582460	 37.757810	 23.665140	-2.526152	-1.284496	-112.800600	 6.408032	-41.596320	-0.603802	-4.130319	 21.525730	 0.991547	-5.167930	 0.731704	 3.519349	-1.378229	 35.397820	-2.634230	-13.999420	 8.620377	 7.304657	-20.037510	-23.369320	-14.363670	 89.782100	 78.293150	 179.992700	 47.565770	-17.885970	-15.650050	-12.828870	-7.609920	 48.098430	-51.238010	 0.940036	-66.662810	 5.716227	 19.173190	-3.685159	 5.027444	 0.246877	-9.377972	-2.350882	 35.473990	 5.254307
-0.419987	 0.229118	 1.252052	-169.255600	 4.541917	 10.004190	 9.100403	 6.480675	-177.587700	-10.459680	-25.395640	-4.774669	 107.121700	 56.539970	-119.943600	-2.385833	 28.452760	 0.000004	 25.277280	-41.385590	 170.001900	 3.612828	-46.125100	 1.507026	 6.110970	 70.398630	 9.124476	 2.384659	 28.388700	-0.000001	 26.803630	-7.844916	 2.464068	 36.278680	 6.566888	 25.694290	-1.303322	 4.727030	-13.943660	-91.776170	 78.527380	 180.000000	-19.573460	 38.092410	 23.936990	-2.470487	-1.150050	-112.835900	 6.618079	-42.466880	-0.603696	-4.130319	 21.525730	 0.991547	-5.167930	 0.731704	 3.519349	-1.378229	 35.397820	-2.634230	-13.498510	 8.352843	 7.356090	-19.609900	-22.982450	-14.383450	 89.782140	 78.292350	 179.992600	 46.529230	-17.641240	-16.067300	-12.844800	-7.715086	 48.419400	-50.629420	 0.255701	-65.999280	 5.716227	 19.173190	-3.685159	 5.027444	 0.246877	-9.377972	-2.350882	 35.473990	 5.254307
-0.419970	 0.228817	 1.252281	-169.330000	 4.142601	 9.866370	 9.856915	 7.025434	-177.709400	-11.048350	-25.102640	-4.981297	 108.901800	 56.457050	-120.930400	-2.385833	 28.452760	 0.000004	 25.933380	-40.982330	 170.155200	 3.235390	-45.971870	 1.231625	 6.797814	 70.113170	 8.574089	 2.384659	 28.388700	-0.000001	 26.699070	-6.807969	 2.403356	 36.249850	 5.598813	 25.973820	-1.022863	 5.134788	-13.635510	-91.776210	 78.527380	-180.000000	-19.988440	 38.098080	 23.933580	-2.437488	-1.069634	-112.877600	 6.597670	-42.872890	-0.647643	-4.130319	 21.525730	 0.991547	-5.167930	 0.731704	 3.519349	-1.378229	 35.397820	-2.634230	-13.257620	 8.403792	 7.535842	-19.397070	-22.773300	-15.154230	 89.782140	 78.292400	 179.992400	 46.225770	-17.375370	-16.313110	-12.951960	-7.894464	 48.619190	-49.761980	 0.431368	-65.157010	 5.716227	 19.173190	-3.685159	 5.027444	 0.246877	-9.377972	-2.350882	 35.473990	 5.254307
-0.419856	 0.228931	 1.252564	-169.727500	 4.328439	 9.627326	 10.752300	 7.177996	-177.603300	-11.419820	-24.453820	-5.020470	 109.663400	 55.715890	-121.081400	-2.385833	 28.452760	 0.000004	 27.059060	-41.336060	 170.833600	 2.765637	-46.222740	 0.897547	 9.426776	 69.982590	 5.776423	 2.384659	 28.388700	-0.000001	 27.189410	-7.226436	 2.904409	 36.137300	 6.043046	 25.675380	-1.122620	 4.817634	-13.628710	-91.776220	 78.527420	-180.000000	-19.804660	 38.052970	 23.890150	-2.414321	-1.015445	-112.860300	 6.281178	-42.749870	-0.773169	-4.130319	 21.525730	 0.991547	-5.167930	 0.731704	 3.519349	-1.378229	 35.397820	-2.634230	-13.427890	 8.337379	 7.915158	-19.443390	-22.655580	-15.617630	 89.782100	 78.293690	 179.992400	 46.378170	-17.293610	-16.207000	-12.936810	-7.860534	 48.560400	-48.722870	 0.975464	-64.448970	 5.716227	 19.173190	-3.685159	 5.027444	 0.246877	-9.377972	-2.350882	 35.473990	 5.254307
-0.419921	 0.228897	 1.252809	-170.236500	 4.186811	 9.936631	 11.203570	 7.173729	-177.878100	-12.023830	-24.573720	-5.304395	 111.657800	 55.148450	-122.359900	-2.385833	 28.452760	 0.000004	 26.747180	-41.177900	 170.305800	 2.654456	-45.781590	 0.811208	 9.226001	 69.311820	 5.985239	 2.384659	 28.388700	-0.000001	 27.681470	-7.207718	 2.726133	 36.223510	 5.692305	 25.645160	-1.158505	 5.063588	-13.649610	-91.776200	 78.527380	-180.000000	-18.758700	 37.652160	 23.217670	-2.363106	-0.894464	-112.848600	 5.444759	-42.123770	-1.097589	-4.130319	 21.525730	 0.991547	-5.167930	 0.731704	 3.519349	-1.378229	 35.397820	-2.634230	-13.407620	 8.576957	 7.480095	-19.573310	-22.882130	-15.625690	 89.782160	 78.291810	 179.992400	 47.344720	-17.070400	-15.865390	-13.004860	-7.937672	 48.553860	-47.817180	 2.171206	-63.267430	 5.716227	 19.173190	-3.685159	 5.027444	 0.246877	-9.377972	-2.350882	 35.473990	 5.254307
